<svg width="20" height="11" viewBox="0 0 20 11" fill="none" xmlns="http://www.w3.org/2000/svg">
<path d="M19.375 8.40627C19.2893 8.45511 19.1948 8.48659 19.097 8.49889C18.9991 8.51119 18.8998 8.50408 18.8047 8.47795C18.7097 8.45183 18.6207 8.40721 18.5428 8.34665C18.465 8.28609 18.3999 8.21077 18.3512 8.12502L16.57 5.01252C15.5344 5.71271 14.392 6.2402 13.1875 6.57439L13.7378 9.87627C13.754 9.97347 13.7509 10.0729 13.7287 10.1689C13.7065 10.2649 13.6656 10.3556 13.6083 10.4358C13.551 10.516 13.4784 10.5841 13.3948 10.6363C13.3112 10.6884 13.2181 10.7236 13.1209 10.7397C13.0809 10.7462 13.0405 10.7497 13 10.75C12.8225 10.7497 12.6509 10.6866 12.5157 10.5718C12.3804 10.4569 12.2903 10.2979 12.2612 10.1228L11.7203 6.88095C10.5795 7.0397 9.42227 7.0397 8.28151 6.88095L7.74058 10.1228C7.71147 10.2982 7.62103 10.4575 7.48538 10.5724C7.34974 10.6872 7.1777 10.7502 6.99995 10.75C6.95849 10.7498 6.91712 10.7464 6.8762 10.7397C6.77898 10.7236 6.6859 10.6884 6.60227 10.6363C6.51864 10.5841 6.44611 10.516 6.38882 10.4358C6.33153 10.3556 6.29061 10.2649 6.26839 10.1689C6.24617 10.0729 6.24309 9.97347 6.25933 9.87627L6.81245 6.57439C5.60835 6.23914 4.46664 5.71071 3.43183 5.0097L1.6562 8.12502C1.60696 8.21083 1.54129 8.2861 1.46296 8.34653C1.38462 8.40696 1.29515 8.45138 1.19965 8.47723C1.10415 8.50309 1.00449 8.50988 0.90637 8.49722C0.808245 8.48456 0.713575 8.4527 0.627765 8.40345C0.541954 8.35421 0.466683 8.28854 0.40625 8.21021C0.345817 8.13187 0.301405 8.0424 0.27555 7.9469C0.249694 7.8514 0.242902 7.75175 0.255561 7.65362C0.26822 7.5555 0.300082 7.46083 0.349327 7.37502L2.22433 4.09377C1.56573 3.52478 0.960125 2.89721 0.414952 2.21877C0.346964 2.14286 0.295158 2.05389 0.262698 1.95729C0.230238 1.86069 0.217804 1.75849 0.226156 1.65693C0.234507 1.55536 0.263469 1.45657 0.311273 1.36657C0.359077 1.27657 0.42472 1.19726 0.504196 1.13347C0.583672 1.06969 0.675313 1.02277 0.773525 0.995579C0.871737 0.968389 0.97446 0.961499 1.07542 0.97533C1.17639 0.989161 1.27347 1.02342 1.36075 1.07602C1.44804 1.12862 1.52368 1.19846 1.58308 1.28127C3.13933 3.20689 5.86183 5.50002 9.99995 5.50002C14.1381 5.50002 16.8606 3.20408 18.4168 1.28127C18.4755 1.19676 18.551 1.12525 18.6386 1.07117C18.7261 1.01708 18.8238 0.981596 18.9257 0.966908C19.0275 0.95222 19.1313 0.958648 19.2306 0.98579C19.3298 1.01293 19.4224 1.06021 19.5026 1.12468C19.5828 1.18915 19.6489 1.26943 19.6968 1.36054C19.7446 1.45164 19.7732 1.55161 19.7807 1.65423C19.7883 1.75686 19.7746 1.85993 19.7406 1.95705C19.7066 2.05418 19.653 2.14326 19.5831 2.21877C19.0379 2.89721 18.4323 3.52478 17.7737 4.09377L19.6487 7.37502C19.699 7.46055 19.7319 7.55522 19.7454 7.65355C19.7588 7.75187 19.7527 7.85189 19.7272 7.94782C19.7017 8.04374 19.6575 8.13365 19.597 8.21235C19.5366 8.29104 19.4611 8.35696 19.375 8.40627Z" fill="#23264F"/>
</svg>
