<svg width="20" height="23" viewBox="0 0 20 23" fill="none" xmlns="http://www.w3.org/2000/svg">
<path fill-rule="evenodd" clip-rule="evenodd" d="M9.5 22.9121C9.66667 22.9707 9.83333 23 10 23C10.1667 23 10.3333 22.9707 10.5 22.9121C10.6667 22.8535 10.8125 22.7754 10.9375 22.6777C13.9792 20.158 16.25 17.8191 17.75 15.6611C19.25 13.5023 20 11.4854 20 9.61019C20 6.68025 18.9946 4.34607 16.9837 2.60764C14.9738 0.869214 12.6458 0 10 0C7.35417 0 5.02625 0.869214 3.01625 2.60764C1.00542 4.34607 0 6.68025 0 9.61019C0 11.4854 0.75 13.5023 2.25 15.6611C3.75 17.8191 6.02083 20.158 9.0625 22.6777C9.1875 22.7754 9.33333 22.8535 9.5 22.9121ZM10 11.5C11.6569 11.5 13 10.1761 13 8.5429C13 6.90971 11.6569 5.58575 10 5.58575C8.34315 5.58575 7 6.90971 7 8.5429C7 10.1761 8.34315 11.5 10 11.5Z" fill="#7D88F2"/>
</svg>
