<svg width="107" height="32" viewBox="0 0 107 32" fill="none" xmlns="http://www.w3.org/2000/svg">
<path d="M16 15.7389C16.6875 15.7389 17.2762 15.4892 17.7663 14.9898C18.2554 14.4913 18.5 13.8917 18.5 13.1911C18.5 12.4904 18.2554 11.8904 17.7663 11.3911C17.2762 10.8926 16.6875 10.6433 16 10.6433C15.3125 10.6433 14.7242 10.8926 14.235 11.3911C13.745 11.8904 13.5 12.4904 13.5 13.1911C13.5 13.8917 13.745 14.4913 14.235 14.9898C14.7242 15.4892 15.3125 15.7389 16 15.7389ZM16 28C15.8333 28 15.6667 27.9682 15.5 27.9045C15.3333 27.8408 15.1875 27.7558 15.0625 27.6497C12.0208 24.9108 9.75 22.3686 8.25 20.0229C6.75 17.6764 6 15.4841 6 13.4459C6 10.2611 7.00542 7.72399 9.01625 5.83439C11.0263 3.9448 13.3542 3 16 3C18.6458 3 20.9738 3.9448 22.9837 5.83439C24.9946 7.72399 26 10.2611 26 13.4459C26 15.4841 25.25 17.6764 23.75 20.0229C22.25 22.3686 19.9792 24.9108 16.9375 27.6497C16.8125 27.7558 16.6667 27.8408 16.5 27.9045C16.3333 27.9682 16.1667 28 16 28Z" fill="#7D88F2"/>
<path d="M45.6875 10.125H36.4375V15.6875C36.4375 19.6562 36.1562 19.7812 35.1875 19.7812H34.5625V22C35.25 22.0625 35.5625 22.0625 35.875 22.0625C38.2812 22.0625 38.8125 20.375 38.8125 15.875V12.3125H43.2812V22H45.6875V10.125ZM52.875 22.1562C55.75 22.1562 57.7188 20.2188 57.7188 17.3125C57.7188 14.375 55.8125 12.4688 52.875 12.4688C50 12.4688 48.0312 14.4062 48.0312 17.3125C48.0312 20.25 49.9375 22.1562 52.875 22.1562ZM52.875 20.2812C51.3125 20.2812 50.3438 19.1562 50.3438 17.3125C50.3438 15.4688 51.3125 14.3438 52.875 14.3438C54.4375 14.3438 55.4062 15.4688 55.4062 17.3125C55.4062 19.1562 54.4375 20.2812 52.875 20.2812ZM66.125 22H68.8125L64.8438 16.3125L68.6562 12.625H65.8438L62 16.5625V12.625H59.75V22H62V19.0938L63.2812 17.875L66.125 22ZM78.125 20.0625C77.75 20.0625 77.5625 19.875 77.5625 19.5V15.5938C77.5625 13.6562 76.1562 12.4688 73.7812 12.4688C72.125 12.4688 70.75 13.0312 69.6562 14.0625L71 15.4688C71.75 14.7188 72.6562 14.3125 73.6562 14.3125C74.7812 14.3125 75.4688 14.75 75.4688 15.4062C75.4688 16.0312 74.6875 16.1875 73.4688 16.3438C71.6875 16.5625 69.4375 17.0312 69.4375 19.4062C69.4375 21.0625 70.6875 22.1562 72.5 22.1562C73.875 22.1562 75.0938 21.5625 75.7812 20.625C75.9375 21.625 76.5312 22.0625 77.6875 22.0625C78.0938 22.0625 78.3438 22.0312 78.5 22V20.0625H78.125ZM72.9688 20.375C72.125 20.375 71.625 19.9375 71.625 19.2188C71.625 18.1875 72.6562 18.0312 73.7188 17.8438C74.5 17.7188 75.0312 17.625 75.4062 17.4062V18.375C75.4062 19.4688 74.3125 20.375 72.9688 20.375ZM88.9062 19.9688V12.625H86.6562V19.9688H82.6875V12.625H80.4375V22H88V24.1875H90.1562V19.9688H88.9062ZM92.0938 11.375H94.5312V9.375H92.0938V11.375ZM92.1875 22H94.4375V12.625H92.1875V22ZM104.906 12.625H100.5C98.2812 12.625 96.8438 13.8438 96.8438 15.7188C96.8438 16.9688 97.5 17.9062 98.6562 18.375L96.2812 22H98.7812L100.844 18.6875H102.688V22H104.906V12.625ZM100.75 17C99.7188 17 99.125 16.5312 99.125 15.7188C99.125 14.9375 99.7188 14.4375 100.75 14.4375H102.688V17H100.75Z" fill="#7D88F2"/>
</svg>
