<svg width="384" height="200" viewBox="0 0 384 200" fill="none" xmlns="http://www.w3.org/2000/svg">
<path d="M168.544 38.659C173.028 38.659 176.662 35.0543 176.662 30.6076C176.662 26.1609 173.028 22.5562 168.544 22.5562C164.061 22.5562 160.426 26.1609 160.426 30.6076C160.426 35.0543 164.061 38.659 168.544 38.659Z" fill="#7D88F2"/>
<ellipse cx="215" cy="90.5" rx="17" ry="14.5" fill="white"/>
<path d="M191.434 33.0168C206.305 33.0168 218.464 44.7225 219.052 59.3303C226.355 60.5096 232.749 64.3648 237.182 69.8496C237.817 66.8089 238.153 63.6608 238.153 60.436C238.153 34.8865 217.195 14.1006 191.434 14.1006C186.168 14.1006 181.898 18.3352 181.898 23.5587C181.898 28.7822 186.168 33.0168 191.434 33.0168Z" fill="#23264F"/>
<path d="M185.003 88.0109C185.003 87.7065 185.017 87.4054 185.026 87.1033C172.863 84.228 163.788 73.3664 163.788 60.4353C163.788 53.214 166.589 46.4223 171.672 41.2688C170.467 41.7339 169.16 41.9987 167.789 41.9987C161.863 41.9987 157.059 37.2341 157.059 31.3567C157.059 30.4382 157.189 29.5519 157.409 28.7017C149.219 37.3271 144.715 48.5352 144.715 60.4353C144.715 85.9849 165.674 106.771 191.435 106.771C191.598 106.771 191.759 106.76 191.922 106.759C187.608 101.697 185.003 95.1573 185.003 88.0109Z" fill="#23264F"/>
<path d="M211.273 85.7961C211.059 85.344 210.411 85.344 210.197 85.7961L208.246 89.9174C208.061 90.3083 208.349 90.7574 208.784 90.7574H212.686C213.122 90.7574 213.41 90.3083 213.224 89.9174L211.273 85.7961Z" fill="#7D88F2"/>
<path d="M214.309 63.2407C200.515 63.2407 189.333 74.3309 189.333 88.0114C189.333 101.692 200.515 112.782 214.309 112.782C228.103 112.782 239.285 101.692 239.285 88.0114C239.285 74.3307 228.103 63.2407 214.309 63.2407ZM219.142 96.1898H216.599C216.37 96.1898 216.161 96.0591 216.063 95.8537L214.966 93.5693C214.868 93.3641 214.659 93.2332 214.429 93.2332H207.04C206.811 93.2332 206.602 93.3641 206.503 93.5693L205.407 95.8537C205.308 96.0591 205.099 96.1898 204.87 96.1898H202.422C201.98 96.1898 201.693 95.7281 201.891 95.3361L208.393 82.4713C208.494 82.2717 208.7 82.1459 208.925 82.1459H212.639C212.864 82.1459 213.07 82.2717 213.171 82.4711L219.673 95.3361C219.872 95.7281 219.584 96.1898 219.142 96.1898ZM225.807 95.6003C225.807 95.9259 225.541 96.1898 225.212 96.1898H222.757C222.429 96.1898 222.163 95.9259 222.163 95.6003V82.7353C222.163 82.4097 222.429 82.1459 222.757 82.1459H225.212C225.541 82.1459 225.807 82.4097 225.807 82.7353V95.6003Z" fill="#7D88F2"/>
<path d="M63.2089 153.112H44.9168C44.1114 153.112 43.4584 153.786 43.4584 154.616V183.862C43.4584 184.692 42.8055 185.366 42.0001 185.366H30.6672C29.8617 185.366 29.2088 184.692 29.2088 183.862V154.616C29.2088 153.786 28.5559 153.112 27.7504 153.112H9.45836C8.65293 153.112 8 152.439 8 151.608V146.286C8 145.456 8.65293 144.782 9.45836 144.782H63.2089C64.0143 144.782 64.6672 145.456 64.6672 146.286V151.608C64.6672 152.439 64.0143 153.112 63.2089 153.112Z" fill="#23264F"/>
<path d="M73.9453 169.025V146.286C73.9453 145.456 74.5982 144.782 75.4037 144.782H86.7366C87.542 144.782 88.195 145.456 88.195 146.286V168.705C88.195 174.472 93.1658 177.783 102.113 177.783C111.061 177.783 116.032 174.472 116.032 168.705V146.286C116.032 145.456 116.684 144.782 117.49 144.782H128.823C129.628 144.782 130.281 145.456 130.281 146.286V169.025C130.281 179.278 119.677 185.9 102.113 185.9C84.5497 185.9 73.9453 179.278 73.9453 169.025Z" fill="#23264F"/>
<path d="M194.768 153.112H176.476C175.67 153.112 175.018 153.786 175.018 154.616V183.862C175.018 184.692 174.365 185.366 173.559 185.366H162.226C161.421 185.366 160.768 184.692 160.768 183.862V154.616C160.768 153.786 160.115 153.112 159.31 153.112H141.017C140.212 153.112 139.559 152.439 139.559 151.608V146.286C139.559 145.456 140.212 144.782 141.017 144.782H194.768C195.573 144.782 196.226 145.456 196.226 146.286V151.608C196.226 152.439 195.573 153.112 194.768 153.112Z" fill="#23264F"/>
<path d="M252.727 178.86V183.862C252.727 184.692 252.074 185.366 251.268 185.366H207.791C206.985 185.366 206.333 184.692 206.333 183.862V146.286C206.333 145.456 206.985 144.782 207.791 144.782H250.44C251.245 144.782 251.898 145.456 251.898 146.286V151.288C251.898 152.119 251.245 152.792 250.44 152.792H221.709C220.904 152.792 220.251 153.465 220.251 154.296V159.191C220.251 160.022 220.904 160.695 221.709 160.695H242.984C243.789 160.695 244.442 161.369 244.442 162.199V166.881C244.442 167.711 243.789 168.385 242.984 168.385H221.709C220.904 168.385 220.251 169.058 220.251 169.888V175.852C220.251 176.683 220.904 177.356 221.709 177.356H251.268C252.074 177.356 252.727 178.029 252.727 178.86Z" fill="#23264F"/>
<path d="M302.915 177.356H277.096C276.575 177.356 276.093 177.643 275.833 178.109L272.2 184.612C271.94 185.078 271.458 185.366 270.936 185.366H259.494C258.35 185.366 257.651 184.068 258.257 183.066L280.962 145.491C281.228 145.05 281.696 144.782 282.199 144.782H298.144C298.647 144.782 299.115 145.05 299.381 145.491L322.086 183.066C322.692 184.068 321.993 185.366 320.849 185.366H309.075C308.553 185.366 308.072 185.078 307.811 184.612L304.179 178.109C303.919 177.643 303.437 177.356 302.915 177.356ZM298.03 167.2L291.271 155.063C290.71 154.056 289.302 154.056 288.741 155.063L281.982 167.2C281.424 168.202 282.125 169.453 283.247 169.453H296.765C297.887 169.453 298.588 168.202 298.03 167.2Z" fill="#23264F"/>
<path d="M374.541 153.112H356.249C355.444 153.112 354.791 153.786 354.791 154.616V183.862C354.791 184.692 354.138 185.366 353.333 185.366H342C341.194 185.366 340.541 184.692 340.541 183.862V154.616C340.541 153.786 339.888 153.112 339.083 153.112H320.791C319.985 153.112 319.333 152.439 319.333 151.608V146.286C319.333 145.456 319.985 144.782 320.791 144.782H374.541C375.347 144.782 376 145.456 376 146.286V151.608C376 152.439 375.347 153.112 374.541 153.112Z" fill="#23264F"/>
</svg>
