<svg width="109" height="114" viewBox="0 0 109 114" fill="none" xmlns="http://www.w3.org/2000/svg">
<path d="M27.4652 28.372C32.6328 28.372 36.822 24.2077 36.822 19.0708C36.822 13.9338 32.6328 9.76953 27.4652 9.76953C22.2976 9.76953 18.1084 13.9338 18.1084 19.0708C18.1084 24.2077 22.2976 28.372 27.4652 28.372Z" fill="#7D88F2"/>
<path d="M53.848 21.8525C70.9873 21.8525 85.0024 35.3753 85.6799 52.2507C94.0976 53.613 101.466 58.0667 106.576 64.4029C107.308 60.8901 107.696 57.2534 107.696 53.528C107.696 24.0125 83.5397 0 53.848 0C47.7776 0 42.8564 4.8919 42.8564 10.9263C42.8564 16.9606 47.7776 21.8525 53.848 21.8525Z" fill="#23264F"/>
<path d="M46.4353 85.3843C46.4353 85.0327 46.4512 84.6849 46.462 84.3358C32.4428 81.0142 21.983 68.4666 21.983 53.5283C21.983 45.186 25.211 37.34 31.0705 31.3865C29.681 31.9238 28.175 32.2298 26.5944 32.2298C19.7641 32.2298 14.2271 26.7256 14.2271 19.9358C14.2271 18.8748 14.3766 17.8509 14.6309 16.8687C5.19113 26.833 0 39.7809 0 53.5283C0 83.0438 24.1563 107.057 53.848 107.057C54.0364 107.057 54.2218 107.044 54.4098 107.043C49.438 101.195 46.4353 93.64 46.4353 85.3843Z" fill="#23264F"/>
<path d="M76.7138 82.8243C76.4672 82.302 75.7199 82.302 75.4734 82.8243L73.2245 87.5859C73.0111 88.0376 73.3427 88.5565 73.8447 88.5565H78.3425C78.8445 88.5565 79.1761 88.0376 78.9627 87.5859L76.7138 82.8243Z" fill="#6570E3"/>
<path d="M80.2129 56.7681C64.3144 56.7681 51.4263 69.5798 51.4263 85.3838C51.4263 101.188 64.3144 114 80.2129 114C96.1114 114 109 101.188 109 85.3838C109 69.5796 96.1114 56.7681 80.2129 56.7681ZM85.7832 94.8317H82.8527C82.5884 94.8317 82.3477 94.6808 82.2341 94.4435L80.9702 91.8045C80.8565 91.5674 80.6158 91.4162 80.3516 91.4162H71.8347C71.5705 91.4162 71.3298 91.5674 71.2162 91.8045L69.9521 94.4435C69.8386 94.6808 69.5979 94.8317 69.3336 94.8317H66.5123C66.0027 94.8317 65.6715 94.2983 65.8999 93.8455L73.3944 78.9838C73.5106 78.7532 73.7476 78.6079 74.0069 78.6079H78.2882C78.5475 78.6079 78.7845 78.7532 78.9007 78.9835L86.3958 93.8455C86.6241 94.2983 86.2928 94.8317 85.7832 94.8317ZM93.4651 94.1508C93.4651 94.5269 93.1584 94.8317 92.78 94.8317H89.9503C89.5719 94.8317 89.2652 94.5269 89.2652 94.1508V79.2888C89.2652 78.9127 89.5719 78.6079 89.9503 78.6079H92.78C93.1584 78.6079 93.4651 78.9127 93.4651 79.2888V94.1508Z" fill="#6570E3"/>
</svg>
