<svg width="232" height="112" viewBox="0 0 232 112" fill="none" xmlns="http://www.w3.org/2000/svg">
<path d="M101.706 20.388C104.439 20.388 106.653 18.1796 106.653 15.4555C106.653 12.7313 104.439 10.5229 101.706 10.5229C98.9742 10.5229 96.7593 12.7313 96.7593 15.4555C96.7593 18.1796 98.9742 20.388 101.706 20.388Z" fill="#7D88F2"/>
<path d="M115.656 16.9313C124.717 16.9313 132.127 24.1025 132.486 33.0517C136.936 33.7741 140.832 36.1359 143.534 39.4961C143.921 37.6333 144.126 35.7046 144.126 33.7291C144.126 18.0768 131.354 5.34277 115.656 5.34277C112.446 5.34277 109.844 7.93699 109.844 11.1371C109.844 14.3371 112.446 16.9313 115.656 16.9313Z" fill="#23264F"/>
<path d="M111.736 50.6224C111.736 50.436 111.744 50.2515 111.75 50.0664C104.338 48.305 98.8078 41.6508 98.8078 33.7289C98.8078 29.305 100.514 25.1442 103.612 21.987C102.878 22.2719 102.082 22.4342 101.246 22.4342C97.6346 22.4342 94.7071 19.5153 94.7071 15.9146C94.7071 15.352 94.7862 14.809 94.9206 14.2881C89.9297 19.5723 87.1851 26.4386 87.1851 33.7289C87.1851 49.3813 99.9569 62.1155 115.655 62.1155C115.755 62.1155 115.853 62.1089 115.952 62.1079C113.324 59.0071 111.736 55.0005 111.736 50.6224Z" fill="#23264F"/>
<path d="M127.746 49.2648C127.615 48.9879 127.22 48.9879 127.09 49.2648L125.901 51.7897C125.788 52.0292 125.964 52.3043 126.229 52.3043H128.607C128.872 52.3043 129.048 52.0292 128.935 51.7897L127.746 49.2648Z" fill="#6570E3"/>
<path d="M129.595 35.4473C121.19 35.4473 114.375 42.2414 114.375 50.6224C114.375 59.0034 121.19 65.7977 129.595 65.7977C138.001 65.7977 144.815 59.0035 144.815 50.6224C144.815 42.2413 138.001 35.4473 129.595 35.4473ZM132.541 55.6327H130.991C130.851 55.6327 130.724 55.5527 130.664 55.4268L129.996 54.0273C129.936 53.9016 129.808 53.8214 129.669 53.8214H125.166C125.026 53.8214 124.899 53.9016 124.839 54.0273L124.17 55.4268C124.11 55.5527 123.983 55.6327 123.843 55.6327H122.352C122.082 55.6327 121.907 55.3499 122.028 55.1097L125.99 47.2284C126.052 47.1062 126.177 47.0291 126.314 47.0291H128.578C128.715 47.0291 128.84 47.1062 128.902 47.2283L132.864 55.1097C132.985 55.3499 132.81 55.6327 132.541 55.6327ZM136.602 55.2716C136.602 55.4711 136.44 55.6327 136.24 55.6327H134.744C134.544 55.6327 134.381 55.4711 134.381 55.2716V47.3902C134.381 47.1907 134.544 47.0291 134.744 47.0291H136.24C136.44 47.0291 136.602 47.1907 136.602 47.3902V55.2716Z" fill="#6570E3"/>
<path d="M36.9054 86.8338H25.6717C25.1771 86.8338 24.7761 87.2409 24.7761 87.7431V105.425C24.7761 105.927 24.3751 106.335 23.8805 106.335H16.9206C16.4259 106.335 16.025 105.927 16.025 105.425V87.7431C16.025 87.2409 15.624 86.8338 15.1293 86.8338H3.89562C3.40098 86.8338 3 86.4267 3 85.9245V82.7067C3 82.2045 3.40098 81.7974 3.89562 81.7974H36.9055C37.4001 81.7974 37.8011 82.2045 37.8011 82.7067V85.9245C37.8011 86.4267 37.4001 86.8338 36.9054 86.8338Z" fill="#23264F"/>
<path d="M43.499 96.455V82.7067C43.499 82.2045 43.9 81.7974 44.3946 81.7974H51.3545C51.8492 81.7974 52.2502 82.2045 52.2502 82.7067V96.2614C52.2502 99.7482 55.3029 101.75 60.7978 101.75C66.2927 101.75 69.3454 99.7482 69.3454 96.2614V82.7067C69.3454 82.2045 69.7464 81.7974 70.2411 81.7974H77.201C77.6956 81.7974 78.0966 82.2045 78.0966 82.7067V96.455C78.0966 102.654 71.5841 106.657 60.7978 106.657C50.0115 106.657 43.499 102.654 43.499 96.455Z" fill="#23264F"/>
<path d="M117.699 86.8338H106.466C105.971 86.8338 105.57 87.2409 105.57 87.7431V105.425C105.57 105.927 105.169 106.335 104.674 106.335H97.7145C97.2199 106.335 96.8189 105.927 96.8189 105.425V87.7431C96.8189 87.2409 96.4179 86.8338 95.9233 86.8338H84.6896C84.1949 86.8338 83.7939 86.4267 83.7939 85.9245V82.7067C83.7939 82.2045 84.1949 81.7974 84.6896 81.7974H117.699C118.194 81.7974 118.595 82.2045 118.595 82.7067V85.9245C118.595 86.4267 118.194 86.8338 117.699 86.8338Z" fill="#23264F"/>
<path d="M153.294 102.401V105.425C153.294 105.927 152.893 106.335 152.398 106.335H125.697C125.203 106.335 124.802 105.927 124.802 105.425V82.7067C124.802 82.2045 125.203 81.7974 125.697 81.7974H151.89C152.384 81.7974 152.785 82.2045 152.785 82.7067V85.7309C152.785 86.2331 152.384 86.6402 151.89 86.6402H134.245C133.75 86.6402 133.349 87.0473 133.349 87.5495V90.5093C133.349 91.0115 133.75 91.4186 134.245 91.4186H147.31C147.805 91.4186 148.206 91.8257 148.206 92.3279V95.1582C148.206 95.6604 147.805 96.0676 147.31 96.0676H134.245C133.75 96.0676 133.349 96.4747 133.349 96.9769V100.582C133.349 101.085 133.75 101.492 134.245 101.492H152.398C152.893 101.492 153.294 101.899 153.294 102.401Z" fill="#23264F"/>
<path d="M184.117 101.492H168.261C167.94 101.492 167.644 101.665 167.485 101.947L165.254 105.879C165.094 106.161 164.798 106.335 164.478 106.335H157.451C156.748 106.335 156.319 105.55 156.691 104.944L170.635 82.2258C170.798 81.9593 171.085 81.7974 171.395 81.7974H181.186C181.496 81.7974 181.783 81.9593 181.947 82.2258L195.89 104.944C196.262 105.55 195.833 106.335 195.13 106.335H187.9C187.579 106.335 187.284 106.161 187.124 105.879L184.893 101.947C184.733 101.665 184.437 101.492 184.117 101.492ZM181.117 95.3511L176.965 88.0131C176.621 87.4045 175.756 87.4045 175.412 88.0131L171.261 95.3511C170.918 95.9574 171.349 96.7134 172.038 96.7134H180.34C181.029 96.7134 181.46 95.9574 181.117 95.3511Z" fill="#23264F"/>
<path d="M228.104 86.8338H216.87C216.376 86.8338 215.975 87.2409 215.975 87.7431V105.425C215.975 105.927 215.574 106.335 215.079 106.335H208.119C207.625 106.335 207.224 105.927 207.224 105.425V87.7431C207.224 87.2409 206.823 86.8338 206.328 86.8338H195.094C194.6 86.8338 194.199 86.4267 194.199 85.9245V82.7067C194.199 82.2045 194.6 81.7974 195.094 81.7974H228.104C228.599 81.7974 229 82.2045 229 82.7067V85.9245C229 86.4267 228.599 86.8338 228.104 86.8338Z" fill="#23264F"/>
</svg>
