<svg width="936" height="578" viewBox="0 0 936 578" fill="none" xmlns="http://www.w3.org/2000/svg">
<path d="M337 500H420C428.837 500 436 492.837 436 484V484C436 475.163 443.163 468 452 468H714C728.359 468 740 479.641 740 494V494C740 508.359 751.641 520 766 520H929" stroke="white" stroke-width="2"/>
<path d="M63 65V380C63 402.091 80.9086 420 103 420H168" stroke="white" stroke-width="2"/>
<path d="M345 501H284.5C262.409 501 244.5 483.091 244.5 461V460C244.5 437.909 226.591 420 204.5 420H155.5" stroke="white" stroke-width="2" stroke-linejoin="round" stroke-dasharray="12 12"/>
<rect x="668" y="494" width="56" height="56" rx="28" transform="rotate(180 668 494)" fill="#B4BAFB"/>
<path d="M631.619 454.353C631.473 454.494 631.374 454.676 631.334 454.875C631.294 455.073 631.315 455.28 631.395 455.466L635.468 464.971L631.395 474.477C631.316 474.66 631.294 474.864 631.332 475.06C631.369 475.256 631.465 475.437 631.607 475.578L631.618 475.59C631.763 475.73 631.948 475.824 632.148 475.858C632.348 475.891 632.553 475.863 632.737 475.778L653.95 465.878C654.123 465.798 654.269 465.67 654.372 465.509C654.474 465.349 654.529 465.162 654.529 464.971C654.529 464.781 654.474 464.594 654.372 464.434C654.27 464.273 654.123 464.145 653.951 464.064L632.737 454.165C632.554 454.079 632.348 454.052 632.148 454.085C631.948 454.119 631.763 454.213 631.618 454.354L631.619 454.353Z" fill="white"/>
<rect x="316" y="471" width="56" height="56" rx="28" fill="#B4BAFB"/>
<path d="M332.5 500.512L342 507L355.5 491" stroke="white" stroke-width="4" stroke-linecap="round" stroke-linejoin="round"/>
<rect x="204" y="381" width="72" height="72" rx="36" transform="rotate(90 204 381)" fill="#7D88F2"/>
<path fill-rule="evenodd" clip-rule="evenodd" d="M172.753 405.25C173.72 405.25 174.503 406.034 174.503 407V415C174.503 415.138 174.615 415.25 174.753 415.25H184.753C184.891 415.25 185.003 415.138 185.003 415V407C185.003 406.034 185.787 405.25 186.753 405.25C187.72 405.25 188.503 406.034 188.503 407V415C188.503 417.071 186.824 418.75 184.753 418.75H174.753C172.682 418.75 171.003 417.071 171.003 415V407C171.003 406.034 171.787 405.25 172.753 405.25Z" fill="white"/>
<path d="M177.753 407C177.753 405.895 178.649 405 179.753 405C180.858 405 181.753 405.895 181.753 407V428C181.753 428.552 181.306 429 180.753 429H178.753C178.201 429 177.753 428.552 177.753 428V407Z" fill="white"/>
<path d="M165.714 428.682C165.789 428.874 165.974 429 166.18 429H170.503C170.859 429 171.101 428.638 170.965 428.309L161.479 405.309C161.402 405.122 161.219 405 161.017 405H155.483C155.281 405 155.098 405.122 155.021 405.309L145.535 428.309C145.399 428.638 145.641 429 145.997 429H150.188C150.394 429 150.579 428.874 150.654 428.682L152.384 424.265C152.46 424.073 152.644 423.947 152.85 423.947H163.518C163.724 423.947 163.909 424.073 163.984 424.265L165.714 428.682ZM154.888 419.716C154.537 419.716 154.295 419.363 154.421 419.036L157.718 410.502C157.882 410.076 158.486 410.076 158.65 410.502L161.947 419.036C162.073 419.363 161.831 419.716 161.48 419.716H154.888Z" fill="white"/>
<rect x="128" width="128" height="128" rx="16" transform="rotate(90 128 0)" fill="#B4BAFB"/>
<path fill-rule="evenodd" clip-rule="evenodd" d="M62.5 98.7325C63 98.9108 63.5 99 64 99C64.5 99 65 98.9108 65.5 98.7325C66 98.5541 66.4375 98.3164 66.8125 98.0191C75.9375 90.3503 82.75 83.232 87.25 76.6642C91.75 70.094 94 63.9554 94 58.2484C94 49.3312 90.9837 42.2272 84.9512 36.9363C78.9212 31.6454 71.9375 29 64 29C56.0625 29 49.0788 31.6454 43.0487 36.9363C37.0163 42.2272 34 49.3312 34 58.2484C34 63.9554 36.25 70.094 40.75 76.6642C45.25 83.232 52.0625 90.3503 61.1875 98.0191C61.5625 98.3164 62 98.5541 62.5 98.7325ZM64 64C68.9706 64 73 59.9706 73 55C73 50.0294 68.9706 46 64 46C59.0294 46 55 50.0294 55 55C55 59.9706 59.0294 64 64 64Z" fill="white"/>
<rect x="936" y="450" width="128" height="128" rx="16" transform="rotate(90 936 450)" fill="#B4BAFB"/>
<path d="M841.25 481V491.374H829.486V481H823V508H829.486V496.916H841.25V508H847.736V481H841.25Z" fill="white"/>
<path d="M878.448 481H865.929C859.066 481 854.994 484.197 854.994 489.597C854.994 493.363 856.879 496.063 860.273 497.413L853.486 508H860.499L866.457 498.337H871.962V508H878.448V481ZM866.382 493.434C863.214 493.434 861.555 492.155 861.555 489.739C861.555 487.395 863.214 486.116 866.382 486.116H871.962V493.434H866.382Z" fill="white"/>
<path d="M921 481H911.573L904.032 500.539L896.415 481H886.913V508H893.247V488.958L900.638 508H907.275L914.665 488.958V508H921V481Z" fill="white"/>
<path d="M836 526C847.912 541.847 878.99 564.033 908 526" stroke="white" stroke-width="6" stroke-linecap="round"/>
</svg>
