<svg width="952" height="579" viewBox="0 0 952 579" fill="none" xmlns="http://www.w3.org/2000/svg">
<path d="M353 501H436C444.837 501 452 493.837 452 485V485C452 476.163 459.163 469 468 469H730C744.359 469 756 480.641 756 495V495C756 509.359 767.641 521 782 521H945" stroke="white" stroke-width="2"/>
<rect x="684" y="495" width="56" height="56" rx="28" transform="rotate(180 684 495)" fill="#B4BAFB"/>
<path d="M647.619 455.353C647.473 455.494 647.374 455.676 647.334 455.875C647.294 456.073 647.315 456.28 647.395 456.466L651.468 465.971L647.395 475.477C647.316 475.66 647.294 475.864 647.332 476.06C647.369 476.256 647.465 476.437 647.607 476.578L647.618 476.59C647.763 476.73 647.948 476.824 648.148 476.858C648.348 476.891 648.553 476.863 648.737 476.778L669.95 466.878C670.123 466.798 670.269 466.67 670.372 466.509C670.474 466.349 670.529 466.162 670.529 465.971C670.529 465.781 670.474 465.594 670.372 465.434C670.27 465.273 670.123 465.145 669.951 465.064L648.737 455.165C648.554 455.079 648.348 455.052 648.148 455.085C647.948 455.119 647.763 455.213 647.618 455.354L647.619 455.353Z" fill="white"/>
<path d="M170 425H221C242.539 425 260 442.461 260 464V464C260 485.539 277.461 503 299 503H360" stroke="white" stroke-width="2"/>
<rect x="332" y="472" width="56" height="56" rx="28" fill="#B4BAFB"/>
<path d="M348.5 501.512L358 508L371.5 492" stroke="white" stroke-width="4" stroke-linecap="round" stroke-linejoin="round"/>
<path d="M80 70V385C80 407.091 97.9086 425 120 425H185.5" stroke="white" stroke-width="2" stroke-linejoin="round" stroke-dasharray="12 12"/>
<rect x="952" y="451" width="128" height="128" rx="16" transform="rotate(90 952 451)" fill="#B4BAFB"/>
<path d="M857.25 482V492.374H845.486V482H839V509H845.486V497.916H857.25V509H863.736V482H857.25Z" fill="white"/>
<path d="M894.448 482H881.929C875.066 482 870.994 485.197 870.994 490.597C870.994 494.363 872.879 497.063 876.273 498.413L869.486 509H876.499L882.457 499.337H887.962V509H894.448V482ZM882.382 494.434C879.214 494.434 877.555 493.155 877.555 490.739C877.555 488.395 879.214 487.116 882.382 487.116H887.962V494.434H882.382Z" fill="white"/>
<path d="M937 482H927.573L920.032 501.539L912.415 482H902.913V509H909.247V489.958L916.638 509H923.275L930.665 489.958V509H937V482Z" fill="white"/>
<path d="M852 527C863.912 542.847 894.99 565.033 924 527" stroke="white" stroke-width="6" stroke-linecap="round"/>
<g opacity="0.3" filter="url(#filter0_f_3_3944)">
<rect x="2" width="156" height="156" rx="40" fill="#DCDFFF"/>
</g>
<rect opacity="0.6" x="8.78271" y="6.78259" width="142.435" height="142.435" rx="40" fill="#B4BAFB"/>
<rect x="144.435" y="13.5652" width="128.87" height="128.87" rx="30" transform="rotate(90 144.435 13.5652)" fill="#6570E3"/>
<path fill-rule="evenodd" clip-rule="evenodd" d="M78.5 112.732C79 112.911 79.5 113 80 113C80.5 113 81 112.911 81.5 112.732C82 112.554 82.4375 112.316 82.8125 112.019C91.9375 104.35 98.75 97.232 103.25 90.6642C107.75 84.094 110 77.9554 110 72.2484C110 63.3312 106.984 56.2272 100.951 50.9363C94.9212 45.6454 87.9375 43 80 43C72.0625 43 65.0788 45.6454 59.0487 50.9363C53.0163 56.2272 50 63.3312 50 72.2484C50 77.9554 52.25 84.094 56.75 90.6642C61.25 97.232 68.0625 104.35 77.1875 112.019C77.5625 112.316 78 112.554 78.5 112.732ZM80 78C84.9706 78 89 73.9706 89 69C89 64.0294 84.9706 60 80 60C75.0294 60 71 64.0294 71 69C71 73.9706 75.0294 78 80 78Z" fill="white"/>
<rect x="198" y="397" width="56" height="56" rx="28" transform="rotate(90 198 397)" fill="#B4BAFB"/>
<path fill-rule="evenodd" clip-rule="evenodd" d="M174.466 415.711C175.23 415.711 175.849 416.33 175.849 417.094V423.419C175.849 423.528 175.938 423.617 176.047 423.617H183.953C184.062 423.617 184.15 423.528 184.15 423.419V417.094C184.15 416.33 184.77 415.711 185.534 415.711C186.298 415.711 186.917 416.33 186.917 417.094V423.419C186.917 425.056 185.59 426.383 183.953 426.383H176.047C174.41 426.383 173.083 425.056 173.083 423.419V417.094C173.083 416.33 173.702 415.711 174.466 415.711Z" fill="white"/>
<path d="M178.419 417.094C178.419 416.221 179.127 415.513 180 415.513V415.513C180.873 415.513 181.581 416.221 181.581 417.094V433.487C181.581 434.039 181.133 434.487 180.581 434.487H179.419C178.866 434.487 178.419 434.039 178.419 433.487V417.094Z" fill="white"/>
<path d="M168.935 434.249C168.994 434.4 169.139 434.5 169.3 434.5H172.69C172.969 434.5 173.159 434.214 173.053 433.953L165.614 415.745C165.554 415.597 165.411 415.5 165.252 415.5H160.913C160.754 415.5 160.611 415.597 160.551 415.745L153.113 433.953C153.006 434.214 153.196 434.5 153.475 434.5H156.761C156.922 434.5 157.067 434.4 157.126 434.249L158.483 430.751C158.542 430.6 158.687 430.5 158.848 430.5H167.213C167.375 430.5 167.519 430.6 167.578 430.751L168.935 434.249ZM160.446 427.15C160.171 427.15 159.981 426.871 160.08 426.612L162.665 419.856C162.794 419.518 163.267 419.518 163.396 419.856L165.981 426.612C166.08 426.871 165.891 427.15 165.615 427.15H160.446Z" fill="white"/>
<defs>
<filter id="filter0_f_3_3944" x="0" y="-2" width="160" height="160" filterUnits="userSpaceOnUse" color-interpolation-filters="sRGB">
<feFlood flood-opacity="0" result="BackgroundImageFix"/>
<feBlend mode="normal" in="SourceGraphic" in2="BackgroundImageFix" result="shape"/>
<feGaussianBlur stdDeviation="1" result="effect1_foregroundBlur_3_3944"/>
</filter>
</defs>
</svg>
