<svg width="1119" height="812" viewBox="0 0 1119 812" fill="none" xmlns="http://www.w3.org/2000/svg">
<path d="M436 689H495C517.091 689 535 671.091 535 649V649C535 626.909 552.909 609 575 609H799C821.091 609 839 626.909 839 649V681C839 703.091 856.909 721 879 721H1028" stroke="white" stroke-width="2"/>
<path d="M92 102.5V521C92 543.091 109.909 561 132 561H197.5" stroke="white" stroke-width="2"/>
<path d="M443.5 690H383C360.909 690 343 672.091 343 650V601C343 578.909 325.091 561 303 561H201.5" stroke="white" stroke-width="2" stroke-linejoin="round" stroke-dasharray="12 12"/>
<rect x="767" y="641" width="56" height="56" rx="28" transform="rotate(180 767 641)" fill="#B4BAFB"/>
<path d="M730.619 601.353C730.473 601.494 730.374 601.676 730.334 601.875C730.294 602.073 730.315 602.28 730.395 602.466L734.468 611.971L730.395 621.477C730.316 621.66 730.294 621.864 730.332 622.06C730.369 622.256 730.465 622.437 730.607 622.578L730.618 622.59C730.763 622.73 730.948 622.824 731.148 622.858C731.348 622.891 731.553 622.863 731.737 622.778L752.95 612.878C753.123 612.798 753.269 612.67 753.372 612.509C753.474 612.349 753.529 612.162 753.529 611.971C753.529 611.781 753.474 611.594 753.372 611.434C753.27 611.273 753.123 611.145 752.951 611.064L731.737 601.165C731.554 601.079 731.348 601.052 731.148 601.085C730.948 601.119 730.763 601.213 730.618 601.354L730.619 601.353Z" fill="white"/>
<rect x="415" y="657" width="56" height="56" rx="28" fill="#B4BAFB"/>
<path d="M431.5 686.512L441 693L454.5 677" stroke="white" stroke-width="4" stroke-linecap="round" stroke-linejoin="round"/>
<rect x="1119" y="660" width="152" height="152" rx="30" transform="rotate(90 1119 660)" fill="#B4BAFB"/>
<path d="M1005.35 705V717.295H990.942V705H983V737H990.942V723.863H1005.35V737H1013.29V705H1005.35Z" fill="white"/>
<path d="M1050.9 705H1035.57C1027.16 705 1022.18 708.789 1022.18 715.189C1022.18 719.653 1024.48 722.853 1028.64 724.453L1020.33 737H1028.92L1036.21 725.547H1042.95V737H1050.9V705ZM1036.12 719.737C1032.24 719.737 1030.21 718.221 1030.21 715.358C1030.21 712.579 1032.24 711.063 1036.12 711.063H1042.95V719.737H1036.12Z" fill="white"/>
<path d="M1103 705H1091.46L1082.22 728.158L1072.9 705H1061.26V737H1069.02V714.432L1078.07 737H1086.19L1095.24 714.432V737H1103V705Z" fill="white"/>
<path d="M1004 755C1016.91 770.847 1050.57 793.033 1082 755" stroke="white" stroke-width="7" stroke-linecap="round"/>
<rect x="168" y="16" width="152" height="152" rx="30" transform="rotate(90 168 16)" fill="#B4BAFB"/>
<path fill-rule="evenodd" clip-rule="evenodd" d="M90.5 126.732C91 126.911 91.5 127 92 127C92.5 127 93 126.911 93.5 126.732C94 126.554 94.4375 126.316 94.8125 126.019C103.938 118.35 110.75 111.232 115.25 104.664C119.75 98.094 122 91.9554 122 86.2484C122 77.3312 118.984 70.2272 112.951 64.9363C106.921 59.6454 99.9375 57 92 57C84.0625 57 77.0788 59.6454 71.0487 64.9363C65.0163 70.2272 62 77.3312 62 86.2484C62 91.9554 64.25 98.094 68.75 104.664C73.25 111.232 80.0625 118.35 89.1875 126.019C89.5625 126.316 90 126.554 90.5 126.732ZM92 92C96.9706 92 101 87.9706 101 83C101 78.0294 96.9706 74 92 74C87.0294 74 83 78.0294 83 83C83 87.9706 87.0294 92 92 92Z" fill="white"/>
<rect x="239" y="525" width="72" height="72" rx="36" transform="rotate(90 239 525)" fill="#7D88F2"/>
<path fill-rule="evenodd" clip-rule="evenodd" d="M207.753 549.25C208.72 549.25 209.503 550.034 209.503 551V559C209.503 559.138 209.615 559.25 209.753 559.25H219.753C219.891 559.25 220.003 559.138 220.003 559V551C220.003 550.034 220.787 549.25 221.753 549.25C222.72 549.25 223.503 550.034 223.503 551V559C223.503 561.071 221.824 562.75 219.753 562.75H209.753C207.682 562.75 206.003 561.071 206.003 559V551C206.003 550.034 206.787 549.25 207.753 549.25Z" fill="white"/>
<path d="M212.753 551C212.753 549.895 213.649 549 214.753 549C215.858 549 216.753 549.895 216.753 551V572C216.753 572.552 216.306 573 215.753 573H213.753C213.201 573 212.753 572.552 212.753 572V551Z" fill="white"/>
<path d="M200.714 572.682C200.789 572.874 200.974 573 201.18 573H205.503C205.859 573 206.101 572.638 205.965 572.309L196.479 549.309C196.402 549.122 196.219 549 196.017 549H190.483C190.281 549 190.098 549.122 190.021 549.309L180.535 572.309C180.399 572.638 180.641 573 180.997 573H185.188C185.394 573 185.579 572.874 185.654 572.682L187.384 568.265C187.46 568.073 187.644 567.947 187.85 567.947H198.518C198.724 567.947 198.909 568.073 198.984 568.265L200.714 572.682ZM189.888 563.716C189.537 563.716 189.295 563.363 189.421 563.036L192.718 554.502C192.882 554.076 193.486 554.076 193.65 554.502L196.947 563.036C197.073 563.363 196.831 563.716 196.48 563.716H189.888Z" fill="white"/>
</svg>
