<svg width="680" height="206" viewBox="0 0 680 206" fill="none" xmlns="http://www.w3.org/2000/svg">
<path d="M527 32C527.552 32 528 31.5523 528 31C528 30.4477 527.552 30 527 30L527 32ZM415.5 31L415.5 32L415.5 31ZM377 70.5C377 69.9477 376.552 69.5 376 69.5C375.448 69.5 375 69.9477 375 70.5L377 70.5ZM115.319 111C115.872 111 116.319 110.552 116.319 110C116.319 109.448 115.872 109 115.319 109L115.319 111ZM127.958 109C127.406 109 126.958 109.448 126.958 110C126.958 110.552 127.406 111 127.958 111L127.958 109ZM140.597 111C141.15 111 141.597 110.552 141.597 110C141.597 109.448 141.15 109 140.597 109L140.597 111ZM153.236 109C152.684 109 152.236 109.448 152.236 110C152.236 110.552 152.684 111 153.236 111L153.236 109ZM165.875 111C166.427 111 166.875 110.552 166.875 110C166.875 109.448 166.427 109 165.875 109L165.875 111ZM178.514 109C177.962 109 177.514 109.448 177.514 110C177.514 110.552 177.962 111 178.514 111L178.514 109ZM191.153 111C191.705 111 192.153 110.552 192.153 110C192.153 109.448 191.705 109 191.153 109L191.153 111ZM203.792 109C203.239 109 202.792 109.448 202.792 110C202.792 110.552 203.239 111 203.792 111L203.792 109ZM216.431 111C216.983 111 217.431 110.552 217.431 110C217.431 109.448 216.983 109 216.431 109L216.431 111ZM229.069 109C228.517 109 228.069 109.448 228.069 110C228.069 110.552 228.517 111 229.069 111L229.069 109ZM241.708 111C242.261 111 242.708 110.552 242.708 110C242.708 109.448 242.261 109 241.708 109L241.708 111ZM254.347 109C253.795 109 253.347 109.448 253.347 110C253.347 110.552 253.795 111 254.347 111L254.347 109ZM266.986 111C267.538 111 267.986 110.552 267.986 110C267.986 109.448 267.538 109 266.986 109L266.986 111ZM279.625 109C279.073 109 278.625 109.448 278.625 110C278.625 110.552 279.073 111 279.625 111L279.625 109ZM292.264 111C292.816 111 293.264 110.552 293.264 110C293.264 109.448 292.816 109 292.264 109L292.264 111ZM304.903 109C304.35 109 303.903 109.448 303.903 110C303.903 110.552 304.35 111 304.903 111L304.903 109ZM317.542 111C318.094 111 318.542 110.552 318.542 110C318.542 109.448 318.094 109 317.542 109L317.542 111ZM330.181 109C329.628 109 329.181 109.448 329.181 110C329.181 110.552 329.628 111 330.181 111L330.181 109ZM341.788 110.658C342.336 110.586 342.722 110.084 342.651 109.537C342.579 108.989 342.077 108.603 341.53 108.675L341.788 110.658ZM351.237 106.079C350.727 106.291 350.485 106.876 350.696 107.386C350.908 107.896 351.493 108.138 352.003 107.926L351.237 106.079ZM361.156 102.632C361.594 102.296 361.676 101.668 361.34 101.23C361.003 100.792 360.376 100.71 359.938 101.046L361.156 102.632ZM367.046 93.9376C366.71 94.3756 366.792 95.0034 367.23 95.3399C367.668 95.6764 368.296 95.5942 368.632 95.1563L367.046 93.9376ZM373.926 86.0032C374.138 85.493 373.896 84.9079 373.386 84.6964C372.876 84.4848 372.291 84.7269 372.079 85.2371L373.926 86.0032ZM374.675 75.5297C374.603 76.0774 374.989 76.5792 375.537 76.6507C376.084 76.7221 376.586 76.3361 376.658 75.7884L374.675 75.5297ZM377.325 65.4703C377.397 64.9226 377.011 64.4208 376.463 64.3493C375.916 64.2779 375.414 64.6639 375.342 65.2116L377.325 65.4703ZM378.074 54.9968C377.862 55.507 378.104 56.0921 378.614 56.3036C379.124 56.5152 379.709 56.2731 379.921 55.7629L378.074 54.9968ZM384.954 47.0624C385.29 46.6244 385.208 45.9966 384.77 45.6601C384.332 45.3236 383.704 45.4058 383.368 45.8437L384.954 47.0624ZM390.844 38.3678C390.406 38.7043 390.324 39.3321 390.66 39.7701C390.997 40.208 391.624 40.2902 392.062 39.9536L390.844 38.3678ZM400.763 34.921C401.273 34.7095 401.515 34.1244 401.304 33.6142C401.092 33.1041 400.507 32.862 399.997 33.0736L400.763 34.921ZM410.212 30.3423C409.664 30.4137 409.278 30.9156 409.349 31.4632C409.421 32.0109 409.923 32.3969 410.47 32.3255L410.212 30.3423ZM421.075 32C421.627 32 422.075 31.5523 422.075 31C422.075 30.4477 421.627 30 421.075 30L421.075 32ZM432.225 30C431.673 30 431.225 30.4477 431.225 31C431.225 31.5523 431.673 32 432.225 32L432.225 30ZM443.375 32C443.927 32 444.375 31.5523 444.375 31C444.375 30.4477 443.927 30 443.375 30L443.375 32ZM454.525 30C453.973 30 453.525 30.4477 453.525 31C453.525 31.5523 453.973 32 454.525 32L454.525 30ZM465.675 32C466.227 32 466.675 31.5523 466.675 31C466.675 30.4477 466.227 30 465.675 30L465.675 32ZM476.825 30C476.273 30 475.825 30.4477 475.825 31C475.825 31.5523 476.273 32 476.825 32L476.825 30ZM487.975 32C488.527 32 488.975 31.5523 488.975 31C488.975 30.4477 488.527 30 487.975 30L487.975 32ZM499.125 30C498.573 30 498.125 30.4477 498.125 31C498.125 31.5523 498.573 32 499.125 32L499.125 30ZM510.275 32C510.827 32 511.275 31.5523 511.275 31C511.275 30.4477 510.827 30 510.275 30L510.275 32ZM521.425 30C520.873 30 520.425 30.4477 520.425 31C520.425 31.5523 520.873 32 521.425 32L521.425 30ZM109 111L115.319 111L115.319 109L109 109L109 111ZM127.958 111L140.597 111L140.597 109L127.958 109L127.958 111ZM153.236 111L165.875 111L165.875 109L153.236 109L153.236 111ZM178.514 111L191.153 111L191.153 109L178.514 109L178.514 111ZM203.792 111L216.431 111L216.431 109L203.792 109L203.792 111ZM229.069 111L241.708 111L241.708 109L229.069 109L229.069 111ZM254.347 111L266.986 111L266.986 109L254.347 109L254.347 111ZM279.625 111L292.264 111L292.264 109L279.625 109L279.625 111ZM304.903 111L317.542 111L317.542 109L304.903 109L304.903 111ZM330.181 111L336.5 111L336.5 109L330.181 109L330.181 111ZM336.5 111C338.292 111 340.057 110.884 341.788 110.658L341.53 108.675C339.884 108.889 338.205 109 336.5 109L336.5 111ZM352.003 107.926C355.296 106.561 358.37 104.774 361.156 102.632L359.938 101.046C357.288 103.082 354.366 104.781 351.237 106.079L352.003 107.926ZM368.632 95.1563C370.774 92.3697 372.561 89.2963 373.926 86.0032L372.079 85.2371C370.781 88.3665 369.082 91.2881 367.046 93.9376L368.632 95.1563ZM376.658 75.7884C376.884 74.0571 377 72.2919 377 70.5L375 70.5C375 72.2052 374.889 73.884 374.675 75.5297L376.658 75.7884ZM377 70.5C377 68.7948 377.111 67.116 377.325 65.4703L375.342 65.2116C375.116 66.9429 375 68.7081 375 70.5L377 70.5ZM379.921 55.7629C381.219 52.6335 382.918 49.7119 384.954 47.0624L383.368 45.8437C381.226 48.6303 379.439 51.7037 378.074 54.9968L379.921 55.7629ZM392.062 39.9536C394.712 37.9176 397.634 36.2187 400.763 34.921L399.997 33.0736C396.704 34.4392 393.63 36.2264 390.844 38.3678L392.062 39.9536ZM410.47 32.3255C412.116 32.1108 413.795 32 415.5 32L415.5 30C413.708 30 411.943 30.1164 410.212 30.3423L410.47 32.3255ZM415.5 32L421.075 32L421.075 30L415.5 30L415.5 32ZM432.225 32L443.375 32L443.375 30L432.225 30L432.225 32ZM454.525 32L465.675 32L465.675 30L454.525 30L454.525 32ZM476.825 32L487.975 32L487.975 30L476.825 30L476.825 32ZM499.125 32L510.275 32L510.275 30L499.125 30L499.125 32ZM521.425 32L527 32L527 30L521.425 30L521.425 32Z" fill="white"/>
<path d="M680 31H570" stroke="white" stroke-width="2"/>
<rect x="516" width="56" height="56" rx="28" fill="#B4BAFB"/>
<path d="M532.5 29.5123L542 36L555.5 20" stroke="white" stroke-width="4" stroke-linecap="round" stroke-linejoin="round"/>
<rect x="168" y="38" width="152" height="152" rx="30" transform="rotate(90 168 38)" fill="#6570E3"/>
<path fill-rule="evenodd" clip-rule="evenodd" d="M105.224 86.679C107.471 86.679 109.293 88.5008 109.293 90.7481V109.35C109.293 109.671 109.553 109.931 109.874 109.931H133.126C133.447 109.931 133.707 109.671 133.707 109.35V90.7481C133.707 88.5008 135.529 86.679 137.776 86.679C140.024 86.679 141.845 88.5008 141.845 90.7481V109.35C141.845 114.165 137.942 118.069 133.126 118.069H109.874C105.058 118.069 101.155 114.165 101.155 109.35V90.7481C101.155 88.5008 102.976 86.679 105.224 86.679Z" fill="white"/>
<path d="M116.85 89.0977C116.85 87.4409 118.193 86.0977 119.85 86.0977H123.15C124.807 86.0977 126.15 87.4409 126.15 89.0977V140.902C126.15 141.455 125.703 141.902 125.15 141.902H117.85C117.297 141.902 116.85 141.455 116.85 140.902V89.0977Z" fill="white"/>
<path d="M88.9204 141.259C89.0941 141.706 89.5214 142 89.9973 142H99.9968C100.82 142 101.38 141.156 101.066 140.389L79.1238 86.7218C78.9452 86.285 78.523 86 78.0546 86H65.2545C64.786 86 64.3639 86.285 64.1853 86.7218L42.2431 140.389C41.9291 141.156 42.4888 142 43.3123 142H53.0065C53.4824 142 53.9097 141.706 54.0834 141.259L58.0869 130.952C58.2605 130.505 58.6879 130.211 59.1638 130.211H83.84C84.3159 130.211 84.7433 130.505 84.9169 130.952L88.9204 141.259ZM63.8774 120.337C63.065 120.337 62.5058 119.514 62.7985 118.75L70.423 98.8385C70.8041 97.8434 72.1997 97.8434 72.5808 98.8385L80.2053 118.75C80.498 119.514 79.9388 120.337 79.1264 120.337H63.8774Z" fill="white"/>
</svg>
