<svg width="687" height="210" viewBox="0 0 687 210" fill="none" xmlns="http://www.w3.org/2000/svg">
<path d="M529 34C529.552 34 530 33.5523 530 33C530 32.4477 529.552 32 529 32L529 34ZM417.5 33L417.5 34L417.5 33ZM379 72.5C379 71.9477 378.552 71.5 378 71.5C377.448 71.5 377 71.9477 377 72.5L379 72.5ZM117.319 113C117.872 113 118.319 112.552 118.319 112C118.319 111.448 117.872 111 117.319 111L117.319 113ZM129.958 111C129.406 111 128.958 111.448 128.958 112C128.958 112.552 129.406 113 129.958 113L129.958 111ZM142.597 113C143.15 113 143.597 112.552 143.597 112C143.597 111.448 143.15 111 142.597 111L142.597 113ZM155.236 111C154.684 111 154.236 111.448 154.236 112C154.236 112.552 154.684 113 155.236 113L155.236 111ZM167.875 113C168.427 113 168.875 112.552 168.875 112C168.875 111.448 168.427 111 167.875 111L167.875 113ZM180.514 111C179.962 111 179.514 111.448 179.514 112C179.514 112.552 179.962 113 180.514 113L180.514 111ZM193.153 113C193.705 113 194.153 112.552 194.153 112C194.153 111.448 193.705 111 193.153 111L193.153 113ZM205.792 111C205.239 111 204.792 111.448 204.792 112C204.792 112.552 205.239 113 205.792 113L205.792 111ZM218.431 113C218.983 113 219.431 112.552 219.431 112C219.431 111.448 218.983 111 218.431 111L218.431 113ZM231.069 111C230.517 111 230.069 111.448 230.069 112C230.069 112.552 230.517 113 231.069 113L231.069 111ZM243.708 113C244.261 113 244.708 112.552 244.708 112C244.708 111.448 244.261 111 243.708 111L243.708 113ZM256.347 111C255.795 111 255.347 111.448 255.347 112C255.347 112.552 255.795 113 256.347 113L256.347 111ZM268.986 113C269.538 113 269.986 112.552 269.986 112C269.986 111.448 269.538 111 268.986 111L268.986 113ZM281.625 111C281.073 111 280.625 111.448 280.625 112C280.625 112.552 281.073 113 281.625 113L281.625 111ZM294.264 113C294.816 113 295.264 112.552 295.264 112C295.264 111.448 294.816 111 294.264 111L294.264 113ZM306.903 111C306.35 111 305.903 111.448 305.903 112C305.903 112.552 306.35 113 306.903 113L306.903 111ZM319.542 113C320.094 113 320.542 112.552 320.542 112C320.542 111.448 320.094 111 319.542 111L319.542 113ZM332.181 111C331.628 111 331.181 111.448 331.181 112C331.181 112.552 331.628 113 332.181 113L332.181 111ZM343.788 112.658C344.336 112.586 344.722 112.084 344.651 111.537C344.579 110.989 344.077 110.603 343.53 110.675L343.788 112.658ZM353.237 108.079C352.727 108.291 352.485 108.876 352.696 109.386C352.908 109.896 353.493 110.138 354.003 109.926L353.237 108.079ZM363.156 104.632C363.594 104.296 363.676 103.668 363.34 103.23C363.003 102.792 362.376 102.71 361.938 103.046L363.156 104.632ZM369.046 95.9376C368.71 96.3756 368.792 97.0034 369.23 97.3399C369.668 97.6764 370.296 97.5942 370.632 97.1563L369.046 95.9376ZM375.926 88.0032C376.138 87.493 375.896 86.9079 375.386 86.6964C374.876 86.4848 374.291 86.7269 374.079 87.2371L375.926 88.0032ZM376.675 77.5297C376.603 78.0774 376.989 78.5792 377.537 78.6507C378.084 78.7221 378.586 78.3361 378.658 77.7884L376.675 77.5297ZM379.325 67.4703C379.397 66.9226 379.011 66.4208 378.463 66.3493C377.916 66.2779 377.414 66.6639 377.342 67.2116L379.325 67.4703ZM380.074 56.9968C379.862 57.507 380.104 58.0921 380.614 58.3036C381.124 58.5152 381.709 58.2731 381.921 57.7629L380.074 56.9968ZM386.954 49.0624C387.29 48.6244 387.208 47.9966 386.77 47.6601C386.332 47.3236 385.704 47.4058 385.368 47.8437L386.954 49.0624ZM392.844 40.3678C392.406 40.7043 392.324 41.3321 392.66 41.7701C392.997 42.208 393.624 42.2902 394.062 41.9536L392.844 40.3678ZM402.763 36.921C403.273 36.7095 403.515 36.1244 403.304 35.6142C403.092 35.1041 402.507 34.862 401.997 35.0736L402.763 36.921ZM412.212 32.3423C411.664 32.4137 411.278 32.9156 411.349 33.4632C411.421 34.0109 411.923 34.3969 412.47 34.3255L412.212 32.3423ZM423.075 34C423.627 34 424.075 33.5523 424.075 33C424.075 32.4477 423.627 32 423.075 32L423.075 34ZM434.225 32C433.673 32 433.225 32.4477 433.225 33C433.225 33.5523 433.673 34 434.225 34L434.225 32ZM445.375 34C445.927 34 446.375 33.5523 446.375 33C446.375 32.4477 445.927 32 445.375 32L445.375 34ZM456.525 32C455.973 32 455.525 32.4477 455.525 33C455.525 33.5523 455.973 34 456.525 34L456.525 32ZM467.675 34C468.227 34 468.675 33.5523 468.675 33C468.675 32.4477 468.227 32 467.675 32L467.675 34ZM478.825 32C478.273 32 477.825 32.4477 477.825 33C477.825 33.5523 478.273 34 478.825 34L478.825 32ZM489.975 34C490.527 34 490.975 33.5523 490.975 33C490.975 32.4477 490.527 32 489.975 32L489.975 34ZM501.125 32C500.573 32 500.125 32.4477 500.125 33C500.125 33.5523 500.573 34 501.125 34L501.125 32ZM512.275 34C512.827 34 513.275 33.5523 513.275 33C513.275 32.4477 512.827 32 512.275 32L512.275 34ZM523.425 32C522.873 32 522.425 32.4477 522.425 33C522.425 33.5523 522.873 34 523.425 34L523.425 32ZM111 113L117.319 113L117.319 111L111 111L111 113ZM129.958 113L142.597 113L142.597 111L129.958 111L129.958 113ZM155.236 113L167.875 113L167.875 111L155.236 111L155.236 113ZM180.514 113L193.153 113L193.153 111L180.514 111L180.514 113ZM205.792 113L218.431 113L218.431 111L205.792 111L205.792 113ZM231.069 113L243.708 113L243.708 111L231.069 111L231.069 113ZM256.347 113L268.986 113L268.986 111L256.347 111L256.347 113ZM281.625 113L294.264 113L294.264 111L281.625 111L281.625 113ZM306.903 113L319.542 113L319.542 111L306.903 111L306.903 113ZM332.181 113L338.5 113L338.5 111L332.181 111L332.181 113ZM338.5 113C340.292 113 342.057 112.884 343.788 112.658L343.53 110.675C341.884 110.889 340.205 111 338.5 111L338.5 113ZM354.003 109.926C357.296 108.561 360.37 106.774 363.156 104.632L361.938 103.046C359.288 105.082 356.366 106.781 353.237 108.079L354.003 109.926ZM370.632 97.1563C372.774 94.3697 374.561 91.2963 375.926 88.0032L374.079 87.2371C372.781 90.3665 371.082 93.2881 369.046 95.9376L370.632 97.1563ZM378.658 77.7884C378.884 76.0571 379 74.2919 379 72.5L377 72.5C377 74.2052 376.889 75.884 376.675 77.5297L378.658 77.7884ZM379 72.5C379 70.7948 379.111 69.116 379.325 67.4703L377.342 67.2116C377.116 68.9429 377 70.7081 377 72.5L379 72.5ZM381.921 57.7629C383.219 54.6335 384.918 51.7119 386.954 49.0624L385.368 47.8437C383.226 50.6303 381.439 53.7037 380.074 56.9968L381.921 57.7629ZM394.062 41.9536C396.712 39.9176 399.634 38.2187 402.763 36.921L401.997 35.0736C398.704 36.4392 395.63 38.2264 392.844 40.3678L394.062 41.9536ZM412.47 34.3255C414.116 34.1108 415.795 34 417.5 34L417.5 32C415.708 32 413.943 32.1164 412.212 32.3423L412.47 34.3255ZM417.5 34L423.075 34L423.075 32L417.5 32L417.5 34ZM434.225 34L445.375 34L445.375 32L434.225 32L434.225 34ZM456.525 34L467.675 34L467.675 32L456.525 32L456.525 34ZM478.825 34L489.975 34L489.975 32L478.825 32L478.825 34ZM501.125 34L512.275 34L512.275 32L501.125 32L501.125 34ZM523.425 34L529 34L529 32L523.425 32L523.425 34Z" fill="white"/>
<g opacity="0.3" filter="url(#filter0_f_1_1155)">
<rect x="2" y="24" width="184" height="184" rx="40" fill="#DCDFFF"/>
</g>
<rect opacity="0.6" x="10" y="32" width="168" height="168" rx="40" fill="#B4BAFB"/>
<rect x="170" y="40" width="152" height="152" rx="30" transform="rotate(90 170 40)" fill="#6570E3"/>
<path fill-rule="evenodd" clip-rule="evenodd" d="M92.5 150.732C93 150.911 93.5 151 94 151C94.5 151 95 150.911 95.5 150.732C96 150.554 96.4375 150.316 96.8125 150.019C105.938 142.35 112.75 135.232 117.25 128.664C121.75 122.094 124 115.955 124 110.248C124 101.331 120.984 94.2272 114.951 88.9363C108.921 83.6454 101.938 81 94 81C86.0625 81 79.0788 83.6454 73.0487 88.9363C67.0163 94.2272 64 101.331 64 110.248C64 115.955 66.25 122.094 70.75 128.664C75.25 135.232 82.0625 142.35 91.1875 150.019C91.5625 150.316 92 150.554 92.5 150.732ZM94 116C98.9706 116 103 111.971 103 107C103 102.029 98.9706 98 94 98C89.0294 98 85 102.029 85 107C85 111.971 89.0294 116 94 116Z" fill="white"/>
<path d="M687 33H572" stroke="white" stroke-width="2"/>
<rect x="578" width="56" height="56" rx="28" transform="rotate(90 578 0)" fill="#B4BAFB"/>
<path d="M536.33 40.8801L538.827 15.1199H547.597L550.05 40.8801H545.159L544.791 36.7233H541.677L541.354 40.8801H536.33ZM542.044 32.6105H544.395L543.264 19.5109H543.029L542.044 32.6105Z" fill="white"/>
<path d="M553.31 15.1199V23.8C553.31 25.3464 554.563 26.6 556.11 26.6H560.87C562.416 26.6 563.67 25.3464 563.67 23.8V15.1199" stroke="white" stroke-width="2.80001"/>
<rect x="556.946" y="15.1199" width="3.36" height="25.4801" fill="white"/>
<defs>
<filter id="filter0_f_1_1155" x="0" y="22" width="188" height="188" filterUnits="userSpaceOnUse" color-interpolation-filters="sRGB">
<feFlood flood-opacity="0" result="BackgroundImageFix"/>
<feBlend mode="normal" in="SourceGraphic" in2="BackgroundImageFix" result="shape"/>
<feGaussianBlur stdDeviation="1" result="effect1_foregroundBlur_1_1155"/>
</filter>
</defs>
</svg>
