<svg width="1121" height="811" viewBox="0 0 1121 811" fill="none" xmlns="http://www.w3.org/2000/svg">
<path d="M215 563H305C327.091 563 345 580.909 345 603V651C345 673.091 362.909 691 385 691H497C519.091 691 537 673.091 537 651V651C537 628.909 554.909 611 577 611H801C823.091 611 841 628.909 841 651V683C841 705.091 858.909 723 881 723H1030" stroke="white" stroke-width="2"/>
<path d="M94 104.5V523C94 545.091 111.909 563 134 563H199.5" stroke="white" stroke-width="2" stroke-linejoin="round" stroke-dasharray="12 12"/>
<rect x="225" y="531" width="56" height="56" rx="28" transform="rotate(90 225 531)" fill="#B4BAFB"/>
<path fill-rule="evenodd" clip-rule="evenodd" d="M201.466 549.711C202.23 549.711 202.85 550.33 202.85 551.094V557.419C202.85 557.528 202.938 557.616 203.047 557.616H210.953C211.062 557.616 211.15 557.528 211.15 557.419V551.094C211.15 550.33 211.77 549.711 212.534 549.711C213.298 549.711 213.917 550.33 213.917 551.094V557.419C213.917 559.056 212.59 560.383 210.953 560.383H203.047C201.41 560.383 200.083 559.056 200.083 557.419V551.094C200.083 550.33 200.702 549.711 201.466 549.711Z" fill="white"/>
<path d="M205.419 551.094C205.419 550.221 206.127 549.513 207 549.513C207.873 549.513 208.581 550.221 208.581 551.094V567.486C208.581 568.039 208.133 568.486 207.581 568.486H206.419C205.867 568.486 205.419 568.039 205.419 567.486V551.094Z" fill="white"/>
<path d="M195.936 568.249C195.994 568.4 196.139 568.5 196.301 568.5H199.69C199.969 568.5 200.159 568.214 200.053 567.953L192.615 549.745C192.554 549.597 192.411 549.5 192.252 549.5H187.913C187.754 549.5 187.611 549.597 187.551 549.745L180.113 567.953C180.006 568.214 180.196 568.5 180.475 568.5H183.761C183.923 568.5 184.068 568.4 184.126 568.249L185.483 564.751C185.542 564.6 185.687 564.5 185.849 564.5H194.213C194.375 564.5 194.52 564.6 194.578 564.751L195.936 568.249ZM187.446 561.15C187.171 561.15 186.981 560.871 187.081 560.612L189.665 553.856C189.794 553.518 190.268 553.518 190.397 553.856L192.981 560.612C193.08 560.871 192.891 561.15 192.616 561.15H187.446Z" fill="white"/>
<rect x="769" y="643" width="56" height="56" rx="28" transform="rotate(180 769 643)" fill="#B4BAFB"/>
<path d="M732.619 603.353C732.473 603.494 732.374 603.676 732.334 603.875C732.294 604.074 732.315 604.28 732.395 604.466L736.468 613.971L732.394 623.477C732.316 623.661 732.294 623.864 732.331 624.06C732.369 624.257 732.465 624.437 732.607 624.578L732.618 624.59C732.763 624.731 732.948 624.824 733.148 624.858C733.348 624.891 733.553 624.863 733.737 624.778L754.95 614.878C755.123 614.798 755.269 614.67 755.372 614.509C755.474 614.349 755.529 614.162 755.529 613.972C755.529 613.781 755.474 613.594 755.372 613.434C755.269 613.273 755.123 613.145 754.95 613.065L733.737 603.165C733.554 603.08 733.348 603.052 733.148 603.085C732.948 603.119 732.763 603.213 732.618 603.354L732.619 603.353Z" fill="white"/>
<rect x="417" y="659" width="56" height="56" rx="28" fill="#B4BAFB"/>
<path d="M433.5 688.512L443 695L456.5 679" stroke="white" stroke-width="4" stroke-linecap="round" stroke-linejoin="round"/>
<rect x="1121" y="659" width="152" height="152" rx="30" transform="rotate(90 1121 659)" fill="#B4BAFB"/>
<path d="M1007.35 704V716.295H992.942V704H985V736H992.942V722.863H1007.35V736H1015.29V704H1007.35Z" fill="white"/>
<path d="M1052.9 704H1037.57C1029.16 704 1024.18 707.789 1024.18 714.189C1024.18 718.653 1026.48 721.853 1030.64 723.453L1022.33 736H1030.92L1038.21 724.547H1044.95V736H1052.9V704ZM1038.12 718.737C1034.24 718.737 1032.21 717.221 1032.21 714.358C1032.21 711.579 1034.24 710.063 1038.12 710.063H1044.95V718.737H1038.12Z" fill="white"/>
<path d="M1105 704H1093.46L1084.22 727.158L1074.9 704H1063.26V736H1071.02V713.432L1080.07 736H1088.19L1097.24 713.432V736H1105V704Z" fill="white"/>
<path d="M1006 754C1018.91 769.847 1052.57 792.033 1084 754" stroke="white" stroke-width="7" stroke-linecap="round"/>
<g opacity="0.3" filter="url(#filter0_f_3_3929)">
<rect x="2" y="2" width="184" height="184" rx="40" fill="#DCDFFF"/>
</g>
<rect opacity="0.6" x="10" y="10" width="168" height="168" rx="40" fill="#B4BAFB"/>
<rect x="170" y="18" width="152" height="152" rx="30" transform="rotate(90 170 18)" fill="#6570E3"/>
<path fill-rule="evenodd" clip-rule="evenodd" d="M92.5 128.732C93 128.911 93.5 129 94 129C94.5 129 95 128.911 95.5 128.732C96 128.554 96.4375 128.316 96.8125 128.019C105.938 120.35 112.75 113.232 117.25 106.664C121.75 100.094 124 93.9554 124 88.2484C124 79.3312 120.984 72.2272 114.951 66.9363C108.921 61.6454 101.938 59 94 59C86.0625 59 79.0788 61.6454 73.0487 66.9363C67.0163 72.2272 64 79.3312 64 88.2484C64 93.9554 66.25 100.094 70.75 106.664C75.25 113.232 82.0625 120.35 91.1875 128.019C91.5625 128.316 92 128.554 92.5 128.732ZM94 94C98.9706 94 103 89.9706 103 85C103 80.0294 98.9706 76 94 76C89.0294 76 85 80.0294 85 85C85 89.9706 89.0294 94 94 94Z" fill="white"/>
<defs>
<filter id="filter0_f_3_3929" x="0" y="0" width="188" height="188" filterUnits="userSpaceOnUse" color-interpolation-filters="sRGB">
<feFlood flood-opacity="0" result="BackgroundImageFix"/>
<feBlend mode="normal" in="SourceGraphic" in2="BackgroundImageFix" result="shape"/>
<feGaussianBlur stdDeviation="1" result="effect1_foregroundBlur_3_3929"/>
</filter>
</defs>
</svg>
