<svg width="40" height="40" viewBox="0 0 40 40" fill="none" xmlns="http://www.w3.org/2000/svg">
<path d="M29.3294 35.6359C27.5202 37.4301 25.5448 37.1468 23.6434 36.2969C21.6311 35.4281 19.785 35.3904 17.662 36.2969C15.0036 37.4679 13.6006 37.1279 12.0129 35.6359C3.00392 26.136 4.33311 11.6689 14.5605 11.1401C17.0528 11.2723 18.7881 12.5377 20.2465 12.651C22.4249 12.1977 24.511 10.8946 26.8371 11.0645C29.6247 11.2912 31.7293 12.4244 33.1139 14.4641C27.354 17.9959 28.7201 25.7582 34 27.9302C32.9477 30.7632 31.5816 33.5773 29.3109 35.6548L29.3294 35.6359ZM20.0619 11.0268C19.785 6.81507 23.1264 3.33996 26.9663 3C27.5017 7.87272 22.6465 11.4989 20.0619 11.0268Z" fill="black"/>
</svg>
