<svg width="40" height="40" viewBox="0 0 40 40" fill="none" xmlns="http://www.w3.org/2000/svg">
<g clip-path="url(#clip0_688_1554)">
<path d="M35.9857 21.2806C35.9857 20.0515 35.8836 19.1546 35.6627 18.2245H21.2988V23.772H29.7301C29.5602 25.1506 28.6423 27.2268 26.6024 28.6219L26.5738 28.8076L31.1154 32.2454L31.43 32.2761C34.3198 29.6683 35.9857 25.8315 35.9857 21.2806Z" fill="#4285F4"/>
<path d="M21.2988 35.8969C25.4295 35.8969 28.8972 34.5681 31.43 32.2761L26.6024 28.6219C25.3105 29.5022 23.5766 30.1167 21.2988 30.1167C17.2532 30.1167 13.8195 27.5091 12.5954 23.9049L12.416 23.9198L7.69359 27.4908L7.63184 27.6586C10.1476 32.5417 15.3152 35.8969 21.2988 35.8969Z" fill="#34A853"/>
<path d="M12.5954 23.905C12.2725 22.9749 12.0855 21.9782 12.0855 20.9485C12.0855 19.9187 12.2725 18.9221 12.5784 17.992L12.5699 17.7939L7.78828 14.1655L7.63184 14.2382C6.59496 16.2646 6 18.5401 6 20.9485C6 23.3569 6.59496 25.6323 7.63184 27.6587L12.5954 23.905Z" fill="#FBBC05"/>
<path d="M21.2988 11.78C24.1716 11.78 26.1094 12.9925 27.2143 14.0058L31.532 9.8866C28.8803 7.47824 25.4295 6 21.2988 6C15.3152 6 10.1476 9.35508 7.63184 14.2382L12.5784 17.992C13.8195 14.3877 17.2532 11.78 21.2988 11.78Z" fill="#EB4335"/>
</g>
<defs>
<clipPath id="clip0_688_1554">
<rect width="30" height="30" fill="white" transform="translate(6 6)"/>
</clipPath>
</defs>
</svg>
