<svg width="16" height="16" viewBox="0 0 16 16" fill="none" xmlns="http://www.w3.org/2000/svg">
<path fill-rule="evenodd" clip-rule="evenodd" d="M8.23309 0.677893C8.23505 0.411777 8.0209 0.197632 7.75479 0.199589C7.48867 0.201545 7.27136 0.41886 7.2694 0.684977L7.22032 7.36181L0.824407 7.40883C0.558291 7.41079 0.340975 7.6281 0.339019 7.89422C0.337062 8.16034 0.551206 8.37448 0.817323 8.37252L7.21323 8.32551L7.16668 14.6585C7.16472 14.9246 7.37886 15.1388 7.64498 15.1368C7.9111 15.1349 8.12841 14.9176 8.13037 14.6514L8.17692 8.31842L14.7909 8.2698C15.057 8.26785 15.2743 8.05053 15.2763 7.78441C15.2782 7.5183 15.0641 7.30415 14.798 7.30611L8.18401 7.35473L8.23309 0.677893Z" fill="#23264F"/>
</svg>
